<?xml version="1.0" standalone="no"?>
<!DOCTYPE svg PUBLIC "-//W3C//DTD SVG 20010904//EN"
 "http://www.w3.org/TR/2001/REC-SVG-20010904/DTD/svg10.dtd">
<svg version="1.0" xmlns="http://www.w3.org/2000/svg"
 width="300.000000pt" height="226.000000pt" viewBox="0 0 300.000000 226.000000"
 preserveAspectRatio="xMidYMid meet">
<metadata>
Created by potrace 1.10, written by Peter Selinger 2001-2011
</metadata>
<g transform="translate(0.000000,226.000000) scale(0.050000,-0.050000)"
fill="#000000" stroke="none">
<path d="M2253 4458 c-9 -43 -22 -59 -42 -51 -15 6 -32 0 -36 -13 -5 -14 -41
-21 -92 -17 -57 4 -86 -3 -94 -22 -12 -32 -69 -39 -69 -9 0 10 -12 9 -27 -3
-15 -13 -33 -17 -40 -9 -7 7 -13 3 -13 -8 0 -12 -31 -27 -70 -35 -38 -7 -70
-21 -70 -31 0 -10 -36 -29 -81 -43 -57 -17 -73 -29 -55 -42 21 -14 21 -20 1
-28 -14 -6 -20 -19 -14 -29 6 -10 -7 -42 -30 -71 -22 -29 -41 -45 -41 -36 0 9
-11 6 -24 -7 -13 -13 -45 -24 -71 -24 -25 0 -52 -14 -58 -31 -7 -17 -36 -43
-64 -58 -81 -41 -303 -258 -303 -296 0 -18 -9 -38 -20 -45 -11 -7 -20 -33 -20
-59 0 -27 -20 -60 -50 -79 -28 -18 -50 -51 -50 -72 0 -22 -7 -40 -15 -40 -52
0 -150 -266 -127 -342 13 -43 31 -78 39 -78 28 0 1 -327 -29 -362 -40 -45 -36
-58 37 -123 43 -37 56 -61 40 -68 -14 -6 -25 -28 -25 -49 0 -22 -14 -44 -30
-51 -62 -23 -250 -337 -250 -415 0 -40 -18 -108 -39 -150 -135 -264 2 -548
274 -566 91 -6 103 -21 55 -69 -110 -110 129 -316 390 -335 28 -2 64 -10 80
-16 107 -43 276 -59 322 -31 86 54 292 24 329 -47 16 -32 51 -72 77 -89 67
-44 105 -139 71 -180 -19 -23 -20 -36 -2 -54 13 -13 23 -57 23 -98 0 -127 34
-177 122 -177 l76 0 -26 75 c-15 41 -20 93 -12 115 9 23 3 69 -12 107 -15 37
-22 89 -16 115 8 29 0 68 -20 97 -35 54 -43 100 -13 82 10 -6 24 7 31 29 12
36 34 49 75 42 8 -1 15 12 15 29 0 17 9 26 20 19 11 -7 20 -2 20 11 0 14 17
19 40 13 22 -6 45 -2 51 8 32 52 158 -3 145 -62 -3 -14 5 -29 18 -34 14 -5 29
20 37 65 17 86 99 147 326 238 112 45 160 78 218 149 40 51 89 106 109 124 97
88 170 429 108 508 -29 37 -30 34 -19 -56 14 -109 -57 -292 -115 -293 -17 -1
-52 -23 -78 -51 -26 -27 -57 -50 -70 -50 -12 0 -42 -18 -66 -40 -23 -22 -63
-42 -88 -45 -25 -3 -53 -14 -62 -25 -9 -11 -11 9 -4 45 8 41 5 65 -8 65 -12 0
-22 -27 -22 -60 0 -41 -17 -75 -53 -105 -30 -25 -68 -58 -86 -75 -46 -43 -296
-167 -337 -166 -19 0 -47 -10 -64 -24 -168 -139 -1073 -169 -1180 -40 -33 40
-5 45 180 29 192 -15 425 -11 500 9 28 8 72 19 98 24 27 5 73 28 103 49 31 21
65 39 77 39 12 0 22 7 22 15 0 20 99 65 144 65 20 0 47 18 61 40 13 22 44 40
67 40 25 0 51 20 64 50 13 27 36 50 52 50 16 0 43 14 61 31 17 18 31 26 31 18
0 -8 31 10 69 39 37 28 78 52 90 52 12 0 27 14 34 30 6 17 24 30 39 30 15 0
28 14 28 30 0 17 22 50 49 73 28 24 59 72 71 107 23 69 55 90 211 139 120 37
189 82 189 122 0 38 -13 37 -77 -8 -54 -37 -266 -83 -382 -83 -35 0 -77 -13
-93 -29 -16 -16 -81 -45 -144 -64 -63 -19 -127 -46 -144 -59 -47 -38 -193 -45
-170 -8 16 25 10 25 -67 -2 -71 -25 -84 -58 -22 -58 34 0 37 -6 19 -40 -12
-22 -38 -40 -58 -40 -39 0 -102 -59 -102 -97 0 -12 -20 -24 -45 -26 -25 -2
-69 -5 -99 -7 -30 -2 -66 -13 -80 -25 -14 -11 -48 -27 -76 -35 l-50 -15 47 50
c31 34 39 55 24 65 -13 7 -52 -17 -89 -56 -65 -70 -144 -88 -207 -47 -14 8
-33 10 -44 4 -10 -6 -24 -3 -31 9 -19 31 -70 24 -70 -10 0 -23 -16 -27 -69
-19 -38 6 -86 2 -107 -9 -26 -14 -45 -13 -61 3 -17 17 -23 17 -23 -3 0 -17
-15 -23 -41 -16 -23 6 -68 -4 -100 -23 -129 -73 -237 77 -127 178 30 27 48 38
40 24 -23 -39 37 -30 75 12 51 56 1 111 -58 62 -28 -23 -173 -31 -205 -12 -91
57 -6 338 130 428 28 18 43 43 37 60 -15 39 148 204 202 205 23 0 53 13 67 30
20 24 20 30 -2 30 -15 0 -6 14 18 32 58 40 121 23 83 -23 -27 -33 -9 -68 20
-38 82 86 119 214 109 382 -10 184 20 220 37 44 9 -101 47 -158 120 -182 20
-7 19 -16 -1 -41 -15 -17 -39 -27 -53 -22 -14 6 -32 -5 -39 -23 -9 -25 -4 -30
20 -21 25 10 29 5 17 -23 -25 -56 -13 -185 16 -185 11 0 14 13 8 29 -6 15 0
33 13 38 17 7 16 16 -5 30 -26 18 -25 25 3 57 17 20 35 54 39 76 4 22 22 42
40 46 47 9 68 -91 28 -135 -17 -19 -31 -47 -31 -62 0 -15 15 -6 34 22 50 72
157 145 116 79 -7 -11 2 -20 19 -20 17 0 31 -15 31 -34 0 -26 5 -29 24 -10 33
33 56 30 56 -6 0 -16 -11 -30 -25 -30 -18 -1 -18 -5 2 -18 21 -13 22 -26 6
-55 -21 -36 -22 -36 -22 0 -1 31 -6 34 -31 13 -16 -14 -30 -44 -30 -66 0 -31
6 -36 22 -20 36 36 78 7 78 -54 0 -34 -17 -67 -45 -87 -36 -26 -38 -30 -7 -19
30 10 36 6 26 -20 -7 -18 0 -56 15 -85 28 -55 40 -15 62 224 16 172 219 406
338 391 33 -5 50 5 55 30 7 40 1 39 233 43 160 3 232 44 101 58 -248 28 -271
106 -95 315 18 22 64 80 101 130 37 49 93 103 124 120 168 91 307 340 190 340
-10 0 -18 18 -18 40 0 22 -13 40 -28 40 -18 0 -25 -14 -18 -40 6 -23 1 -40
-12 -40 -14 0 -18 -18 -11 -47 19 -75 -123 -178 -391 -287 -86 -35 -251 -40
-231 -8 15 24 -312 69 -417 57 -61 -7 -92 -2 -92 12 0 13 -12 1 -25 -26 -34
-67 -207 -188 -239 -168 -15 9 -39 18 -54 20 -150 23 -118 235 50 341 36 22
35 24 -9 25 -49 1 -54 52 -14 146 9 19 8 35 -2 34 -19 0 -127 -171 -127 -200
0 -9 -19 -28 -42 -40 -36 -19 -41 -36 -32 -100 5 -42 2 -80 -7 -83 -14 -5 -32
-75 -37 -149 -3 -37 -72 -44 -142 -14 -81 34 -84 227 -4 312 34 37 40 62 31
120 -11 67 -5 80 71 150 45 43 82 88 82 102 0 13 22 34 50 46 33 16 54 45 62
90 11 60 20 67 78 67 59 0 188 115 166 147 -13 19 73 93 107 93 20 0 37 8 37
18 0 38 256 128 332 116 81 -14 185 29 311 129 85 67 126 74 111 18 -9 -36 -2
-39 76 -28 54 8 121 0 183 -20 53 -18 150 -43 216 -55 154 -28 278 -94 427
-229 66 -60 129 -109 140 -109 12 0 54 -45 94 -100 40 -55 96 -118 124 -140
34 -27 53 -63 57 -109 4 -44 29 -94 71 -140 36 -40 68 -90 72 -111 3 -21 24
-68 46 -104 22 -36 40 -87 40 -113 0 -30 14 -51 40 -57 27 -7 40 -28 40 -63 1
-29 18 -75 40 -103 22 -27 39 -66 40 -85 0 -19 8 -35 18 -35 10 0 23 -22 30
-50 7 -27 24 -50 38 -50 13 0 36 -18 49 -40 14 -22 40 -40 58 -40 22 0 28 -12
21 -40 -6 -22 6 -60 28 -88 21 -27 38 -59 38 -73 0 -14 16 -38 35 -53 33 -28
33 -29 -2 -17 -21 6 13 -35 74 -92 62 -56 108 -110 103 -118 -6 -8 14 -30 42
-48 61 -40 51 -65 -12 -31 -24 13 -49 18 -55 12 -6 -6 33 -32 87 -56 84 -38
91 -46 50 -52 -42 -7 -34 -15 57 -67 98 -56 135 -107 41 -57 -24 13 -48 19
-54 13 -6 -6 24 -25 65 -42 103 -43 138 -73 107 -92 -16 -10 4 -29 55 -56 105
-53 161 -115 75 -82 -82 31 -38 -5 100 -83 l119 -66 -47 64 c-50 68 -40 117
11 53 102 -132 73 -177 -68 -104 -100 51 -100 52 -96 8 5 -60 100 -242 110
-212 5 16 22 8 45 -23 26 -34 37 -39 38 -17 0 17 -9 40 -20 51 -23 23 -99 168
-88 168 4 0 48 -20 97 -44 101 -49 120 -83 36 -64 l-55 12 45 -33 c25 -18 53
-28 63 -22 24 15 162 -44 162 -70 0 -14 -13 -14 -39 0 -50 27 -61 26 -61 -4 0
-14 40 -46 89 -72 49 -26 105 -66 125 -88 58 -65 -39 -28 -177 67 -167 115
-163 95 6 -35 222 -170 211 -163 180 -122 -45 57 -3 40 91 -37 101 -83 101
-120 0 -42 -45 34 -76 45 -95 33 -21 -13 -14 -22 29 -38 59 -23 238 -161 225
-174 -6 -7 -58 15 -165 71 -12 7 -91 70 -176 140 -84 71 -188 154 -231 186
l-78 57 40 -83 c26 -53 46 -75 55 -60 15 24 125 -44 118 -74 -5 -25 148 -324
166 -324 29 0 22 19 -52 153 -38 70 -62 127 -53 127 28 0 341 -278 366 -326
16 -29 27 -35 32 -18 5 15 -8 45 -28 69 -34 38 -34 41 -2 29 30 -11 35 -1 35
65 0 43 -16 106 -35 140 -33 60 -33 64 0 83 24 14 35 43 33 94 0 41 -6 63 -11
49 -6 -14 -25 -25 -42 -25 -18 0 -48 -15 -69 -33 -20 -18 -43 -26 -51 -17 -8
8 -5 19 8 24 30 10 11 80 -25 94 -15 6 -28 25 -28 43 0 18 -11 29 -25 24 -58
-20 -167 289 -110 312 14 5 5 11 -19 11 -32 2 -41 -7 -33 -28 6 -16 6 -45 -1
-62 -16 -42 -72 -1 -72 53 0 22 -17 39 -45 43 -25 4 -43 18 -40 32 3 13 -21
40 -52 59 -31 19 -82 64 -112 100 -30 36 -67 65 -81 65 -29 0 -123 139 -114
167 3 10 -8 13 -25 6 -16 -6 -36 -1 -43 11 -8 12 -6 17 5 10 10 -6 32 -3 47 6
24 15 24 20 -4 31 -26 10 -30 23 -16 60 12 29 11 52 -1 59 -10 7 -20 -8 -21
-34 -2 -34 -5 -37 -12 -11 -5 20 -28 35 -52 35 -33 -1 -37 -5 -17 -18 22 -14
22 -20 2 -33 -16 -9 -39 1 -60 28 -41 50 -69 57 -52 13 14 -35 -18 -41 -38 -8
-8 12 -4 28 7 36 12 7 31 52 41 100 25 108 40 124 128 128 38 2 67 13 63 24
-8 24 103 150 133 150 12 0 16 9 9 20 -7 11 -3 20 9 20 11 0 21 18 21 41 0 22
22 63 48 89 27 27 55 67 62 90 7 22 22 35 34 28 13 -8 11 -19 -7 -30 -39 -25
-2 -22 46 3 33 18 42 15 51 -20 14 -52 38 -52 66 0 12 22 29 36 38 30 10 -6
41 12 71 39 29 28 62 50 72 50 10 0 19 12 19 28 0 15 22 31 48 37 53 10 101
-59 80 -114 -7 -18 22 -62 75 -114 99 -97 128 -72 66 57 -28 59 -31 103 -21
238 21 251 -54 250 -338 -6 -22 -20 -71 -57 -109 -83 l-69 -47 -45 57 c-134
171 -173 177 -193 31 -22 -157 -67 -274 -104 -268 -44 8 -105 -47 -151 -137
-54 -107 -91 -132 -136 -92 -52 47 -100 41 -127 -18 -28 -62 -69 -53 -59 13 9
60 35 77 118 78 75 0 86 41 33 117 -41 58 -16 124 66 176 124 79 98 167 -48
167 l-72 0 15 105 c40 301 41 275 -15 275 -33 0 -82 -31 -142 -89 -91 -89
-113 -89 -122 -3 -3 23 -6 50 -7 59 -2 10 -25 13 -53 8 -79 -15 -100 29 -66
134 46 137 -34 189 -86 57 -12 -31 -31 -73 -42 -93 -15 -29 -13 -34 8 -21 20
12 20 8 -1 -18 -24 -29 -24 -34 0 -34 22 -1 22 -4 0 -18 -21 -13 -21 -19 4
-28 17 -7 35 -1 40 12 5 13 11 3 11 -22 1 -25 18 -51 37 -59 19 -7 65 -33 101
-58 37 -25 78 -40 93 -35 28 11 58 -44 40 -74 -6 -10 6 -18 28 -18 39 0 76
-73 71 -140 -4 -58 -34 -150 -54 -163 -10 -7 0 -19 23 -26 49 -16 52 -30 20
-99 -37 -82 -182 -47 -150 37 4 12 -14 39 -41 61 -92 75 -104 91 -96 130 4 23
-2 37 -16 35 -13 -3 -23 10 -21 29 1 19 -3 34 -10 33 -42 -5 -55 10 -59 67 -3
35 -14 74 -25 87 -14 17 -11 28 11 36 42 16 -26 91 -70 77 -24 -8 -25 -5 -5
17 43 47 32 179 -15 179 -27 0 -40 13 -40 40 0 22 -13 40 -30 40 -16 0 -30 -9
-30 -20 0 -52 -82 -17 -93 40 -7 33 -18 60 -25 60 -15 0 -25 60 -26 145 -1 56
-26 75 -41 30 -5 -14 -16 4 -24 40 -8 36 -23 65 -34 65 -11 0 -14 20 -7 45 11
41 10 42 -16 11 -30 -38 -74 -14 -74 40 0 17 -12 24 -31 16 -17 -6 -26 -3 -20
7 7 10 -6 31 -29 46 -22 16 -34 35 -27 42 8 7 -3 13 -23 13 -20 0 -31 6 -24
13 19 19 -77 87 -124 87 -23 0 -42 7 -42 15 0 8 -27 44 -60 78 -39 43 -51 67
-35 74 14 5 -4 11 -39 11 -35 1 -89 12 -120 24 -31 11 -110 32 -176 46 -70 15
-118 35 -115 49 4 17 -72 23 -273 23 l-277 0 -12 -62z m-1348 -1374 c-11 -74
-55 -75 -58 -1 -1 31 6 52 15 46 10 -6 18 -1 18 11 0 12 7 18 17 12 9 -6 13
-36 8 -68z m1356 -37 c9 -10 -23 -65 -72 -124 -48 -58 -116 -157 -149 -220
-108 -202 -133 -224 -274 -233 -162 -10 -168 6 -56 156 51 68 119 165 151 214
32 50 73 110 91 135 33 45 32 45 -45 45 -91 -1 -167 -19 -167 -40 0 -22 -128
-217 -143 -219 -34 -3 -35 72 -2 118 71 97 74 107 26 81 -25 -13 -50 -18 -56
-12 -6 6 32 30 84 54 143 63 563 94 612 45z m46 -147 c10 -52 -3 -79 -87 -184
-55 -68 -100 -133 -100 -143 0 -42 -69 -93 -124 -93 l-58 0 57 75 c32 41 66
100 76 130 25 73 173 275 202 275 12 0 27 -27 34 -60z m-759 23 c14 -23 -148
-49 -288 -47 -110 1 -110 1 -150 -82 -22 -46 -77 -138 -122 -205 -45 -66 -91
-147 -102 -180 -30 -91 -80 -87 -106 9 -19 73 -16 89 29 161 28 44 51 85 51
91 0 6 23 47 50 90 56 89 51 93 -71 50 -86 -31 -123 -26 -86 11 34 34 410 102
497 90 44 -6 94 -2 110 9 37 24 174 26 188 3z m-248 -252 c0 -46 -27 -112 -81
-198 l-81 -130 -124 1 c-130 1 -130 1 36 46 11 3 65 83 120 177 110 190 130
206 130 104z m1040 -49 c0 -57 -35 -85 -140 -113 l-50 -14 45 43 c24 24 59 70
76 103 36 70 69 61 69 -19z m-1554 -575 c15 -15 -21 -87 -44 -87 -9 0 -12 23
-7 50 10 49 26 62 51 37z m2154 -305 c0 -30 -275 -298 -322 -313 -45 -14 -216
-130 -286 -193 -34 -31 -197 -116 -222 -116 -5 0 -10 19 -10 42 0 29 9 39 30
31 24 -9 25 -5 6 25 -35 56 -75 9 -54 -64 14 -48 9 -58 -34 -75 -67 -25 -68
-25 -68 17 0 86 -80 109 -120 34 -31 -58 -80 -67 -80 -15 -1 28 -4 29 -18 7
-11 -17 -32 -22 -54 -14 -20 8 -31 8 -24 1 8 -7 5 -34 -5 -60 -11 -32 -10 -52
5 -61 12 -8 17 -5 10 6 -25 39 38 98 73 69 17 -15 42 -20 54 -12 13 8 31 2 41
-13 12 -20 20 -10 30 37 18 89 40 97 65 24 16 -46 16 -63 -3 -68 -13 -4 -80
-27 -149 -49 -163 -55 -185 -54 -185 9 0 57 -55 89 -82 47 -28 -44 -20 -72 10
-33 36 48 52 44 52 -12 0 -47 -2 -48 -215 -46 -118 2 -259 -2 -312 -7 -141
-14 -173 38 -73 119 38 32 63 65 55 73 -8 8 -15 4 -15 -9 0 -33 -54 -28 -67 6
-14 36 7 51 70 51 26 1 70 2 97 2 164 5 360 -13 353 -31 -4 -12 -22 -20 -40
-18 -18 1 -28 -6 -22 -15 18 -28 52 -21 82 17 26 33 28 33 54 0 30 -38 83 -30
100 14 8 22 49 33 223 62 79 14 153 37 162 52 6 9 24 17 41 17 17 0 59 20 93
44 41 29 58 34 51 15 -6 -16 5 -46 26 -67 20 -22 37 -30 37 -19 0 10 -8 28
-18 38 -52 56 -43 104 29 147 84 50 79 49 113 15 23 -23 31 -22 54 1 22 24 22
28 -1 25 -109 -15 -100 30 13 63 50 15 90 32 90 38 0 11 97 62 260 136 109 50
100 48 100 26z m-2349 -173 c8 -38 21 -69 31 -69 10 0 18 -13 18 -30 0 -16 8
-30 17 -30 9 0 18 -11 19 -25 13 -101 11 -122 -12 -130 -14 -5 -23 3 -20 18 3
14 -15 29 -41 33 -30 5 -43 0 -34 -14 7 -12 5 -22 -6 -22 -54 0 -75 166 -32
249 17 32 26 71 20 86 -6 15 -2 22 8 15 11 -6 25 -43 32 -81z m170 -329 c11 0
19 -8 19 -17 0 -20 -86 -14 -121 7 -15 10 -6 23 24 38 37 19 48 18 53 -2 4
-14 15 -26 25 -26z"/>
<path d="M2000 2916 c-49 -67 -99 -137 -109 -154 -11 -18 -51 -81 -88 -142
-54 -85 -59 -101 -24 -70 25 22 69 81 98 130 97 167 213 318 243 320 64 2 93
39 30 39 -50 0 -75 -20 -150 -123z"/>
<path d="M1204 1056 c-13 -13 -24 -38 -23 -55 0 -19 11 -12 28 19 l28 50 20
-50 c11 -27 21 -39 22 -27 4 72 -34 104 -75 63z"/>
<path d="M29 4362 c6 -10 0 -23 -14 -28 -15 -6 -4 -18 25 -29 62 -25 93 10 44
48 -40 30 -71 35 -55 9z"/>
<path d="M740 4280 c23 -15 13 -20 -40 -20 l-70 -1 50 -28 c27 -15 56 -24 63
-19 8 5 20 0 26 -11 7 -10 25 -15 39 -9 29 11 -44 108 -80 108 -10 0 -4 -9 12
-20z"/>
<path d="M928 4285 c8 -14 5 -25 -7 -25 -11 0 -21 -11 -21 -25 0 -33 136 -33
149 0 6 15 -8 25 -36 25 -25 0 -57 11 -72 25 -21 20 -24 20 -13 0z"/>
<path d="M360 4269 c0 -38 66 -72 115 -60 41 11 47 18 24 32 -41 26 -64 23
-46 -6 9 -14 -9 -9 -39 10 -30 20 -54 31 -54 24z"/>
<path d="M1928 4111 c-87 -75 -113 -100 -171 -163 -74 -82 -110 -108 -149
-108 -19 0 -29 -6 -22 -13 7 -7 -2 -38 -20 -69 -75 -127 8 -75 196 122 233
245 314 357 166 231z"/>
<path d="M3090 3880 c-7 -12 -32 -16 -54 -9 -29 9 -38 5 -32 -14 5 -15 27 -30
49 -33 45 -7 101 45 69 65 -10 6 -25 2 -32 -9z"/>
<path d="M248 3808 c1 -34 13 -61 26 -61 13 0 20 7 15 15 -5 8 -1 21 11 28 11
7 20 22 20 34 0 14 -10 13 -28 -3 -23 -18 -31 -16 -38 13 -5 20 -8 8 -6 -26z"/>
<path d="M4829 3782 c0 -23 11 -35 30 -31 17 3 37 7 45 7 8 1 10 16 3 32 -16
43 -78 37 -78 -8z"/>
<path d="M4958 3795 c-2 -14 -2 -32 0 -40 1 -8 -7 -15 -18 -15 -11 0 -20 -11
-20 -24 0 -18 6 -18 25 1 14 14 25 35 25 47 0 13 11 26 25 31 14 5 25 -1 25
-13 0 -13 33 -21 75 -19 68 3 69 4 15 12 -33 4 -69 16 -79 27 -27 26 -71 22
-73 -7z"/>
<path d="M3410 3731 c-40 -42 -82 -116 -99 -174 -17 -56 -41 -115 -54 -131
-18 -22 -17 -35 8 -59 40 -41 81 -15 67 42 -6 24 2 63 19 86 20 28 22 47 8 55
-18 12 95 176 147 213 10 6 8 18 -5 26 -13 9 -52 -16 -91 -58z"/>
<path d="M4645 3747 c-25 -18 -45 -40 -45 -49 0 -10 18 -2 40 17 23 19 70 41
105 47 l65 13 -60 1 c-33 1 -80 -12 -105 -29z"/>
<path d="M5805 3766 c-25 -5 -40 -17 -34 -27 18 -30 84 -22 96 11 7 17 5 29
-3 27 -8 -1 -34 -6 -59 -11z"/>
<path d="M1829 3652 c-21 -16 -33 -35 -26 -42 15 -15 97 32 97 55 0 23 -28 18
-71 -13z"/>
<path d="M2840 3640 c-33 -21 -33 -22 45 -27 34 -3 55 6 55 21 0 30 -57 34
-100 6z"/>
<path d="M3636 3490 c-35 -58 -40 -170 -7 -182 57 -22 73 17 45 113 -14 49
-31 80 -38 69z"/>
<path d="M121 3381 c-26 -7 -51 -22 -55 -34 -11 -31 69 -48 125 -27 32 13 53
10 68 -9 13 -15 45 -33 72 -39 27 -7 49 -21 49 -31 0 -9 17 -13 39 -7 26 7 34
21 26 43 -12 29 -7 29 41 -3 30 -19 54 -27 54 -17 0 10 -14 24 -31 31 -17 6
-27 19 -22 27 5 9 -3 33 -19 54 -27 37 -28 37 -28 -10 -1 -35 -5 -41 -18 -22
-13 20 -27 22 -53 8 -26 -15 -44 -13 -63 6 -15 15 -41 22 -57 16 -16 -6 -41
-3 -54 8 -14 10 -47 13 -74 6z"/>
<path d="M3732 3183 c-8 -12 3 -41 25 -64 50 -55 71 -22 24 39 -23 31 -40 40
-49 25z"/>
<path d="M87 2909 c-8 -20 -25 -26 -51 -18 -31 10 -38 5 -32 -24 5 -21 21 -33
37 -29 81 24 183 24 211 0 26 -21 34 -20 49 3 13 21 8 31 -17 35 -18 4 -68 19
-110 35 -67 26 -77 26 -87 -2z"/>
<path d="M3900 2903 c0 -25 79 -111 91 -99 18 18 -36 116 -64 116 -15 0 -27
-8 -27 -17z"/>
<path d="M344 2876 c-36 -36 -29 -70 16 -82 24 -6 47 2 58 21 9 17 31 26 48
19 19 -7 34 3 40 27 12 46 -119 58 -162 15z"/>
<path d="M469 2786 c-23 -23 -27 -37 -11 -42 18 -6 18 -15 0 -36 -19 -24 -17
-26 11 -16 21 9 31 28 24 51 -7 27 2 37 30 37 22 0 34 9 27 20 -18 29 -42 25
-81 -14z"/>
<path d="M3393 2787 c-22 -23 -14 -47 16 -47 16 0 38 -16 49 -35 19 -32 21
-31 21 6 1 61 -53 108 -86 76z"/>
<path d="M3320 2631 c0 -32 76 -82 95 -63 13 14 -53 92 -78 92 -9 0 -17 -13
-17 -29z"/>
<path d="M100 2610 c0 -31 35 -38 88 -18 53 20 36 48 -28 48 -40 0 -60 -10
-60 -30z"/>
<path d="M3616 2589 c-17 -17 31 -109 57 -109 13 0 19 17 13 39 -12 45 -54 86
-70 70z"/>
<path d="M4141 2585 c1 -27 58 -92 70 -80 16 16 -27 95 -52 95 -10 0 -19 -7
-18 -15z"/>
<path d="M3920 2480 c0 -11 8 -20 18 -20 10 0 38 -31 62 -70 45 -73 88 -96 66
-35 -36 96 -146 191 -146 125z"/>
<path d="M4280 2489 c0 -7 14 -26 31 -43 17 -17 25 -46 18 -68 -8 -26 -2 -38
20 -38 40 0 40 48 -1 111 -30 45 -68 66 -68 38z"/>
<path d="M3403 2420 c12 -33 34 -60 49 -60 36 0 35 21 -3 76 -45 63 -71 54
-46 -16z"/>
<path d="M2730 2440 c-18 -30 7 -60 51 -60 44 0 50 21 15 56 -29 29 -50 30
-66 4z"/>
<path d="M3840 2371 c0 -17 9 -31 20 -31 12 0 36 -31 54 -70 18 -38 46 -70 61
-70 20 0 16 21 -18 82 -51 91 -117 141 -117 89z"/>
<path d="M3000 2334 c0 -16 19 -34 41 -40 31 -8 40 -2 35 22 -8 42 -76 58 -76
18z"/>
<path d="M3635 2329 c-14 -14 49 -129 70 -129 8 0 15 17 15 37 0 40 -66 111
-85 92z"/>
<path d="M5443 2312 c7 -8 6 -41 -3 -72 -11 -39 -7 -69 13 -98 28 -40 70 -58
64 -27 -4 17 17 79 44 130 28 51 24 58 -26 52 -25 -3 -58 2 -75 12 -16 9 -24
11 -17 3z"/>
<path d="M166 2263 c-2 -26 9 -35 41 -31 23 2 51 5 62 6 24 2 -52 61 -80 61
-11 1 -22 -15 -23 -36z"/>
<path d="M5798 2300 c-22 -86 -13 -110 44 -111 64 -1 80 44 23 65 -19 7 -42
23 -50 35 -8 11 -16 17 -17 11z"/>
<path d="M1680 2232 c0 -46 6 -49 80 -33 6 1 -6 11 -25 23 -20 11 -31 29 -24
39 6 11 2 19 -10 19 -11 0 -21 -22 -21 -48z"/>
<path d="M4116 2220 c35 -62 64 -78 63 -35 -1 34 -49 95 -75 95 -13 0 -8 -24
12 -60z"/>
<path d="M4460 2202 c0 -9 14 -28 30 -42 17 -14 30 -36 30 -50 0 -14 14 -31
30 -37 43 -17 37 19 -14 88 -43 58 -76 76 -76 41z"/>
<path d="M1384 2156 c-31 -31 -31 -82 -1 -72 27 9 63 96 40 96 -8 0 -26 -11
-39 -24z"/>
<path d="M4240 2109 c21 -40 33 -85 27 -101 -7 -17 1 -28 20 -28 51 0 53 28 7
109 -57 101 -104 118 -54 20z"/>
<path d="M3306 2100 c23 -60 74 -83 74 -33 0 26 -61 93 -85 93 -6 0 -1 -27 11
-60z"/>
<path d="M4112 2123 c-6 -10 7 -34 28 -53 22 -20 40 -53 40 -73 0 -20 14 -37
30 -37 42 0 38 19 -21 105 -54 80 -61 85 -77 58z"/>
<path d="M1495 2045 c-30 -19 -55 -41 -55 -49 0 -8 -34 -24 -75 -35 -90 -25
-195 -100 -141 -101 18 0 39 9 46 20 21 33 122 22 158 -17 31 -36 31 -44 -9
-152 -24 -62 -38 -119 -32 -125 14 -14 114 49 110 69 -2 8 8 42 21 75 13 32
17 62 8 65 -9 3 -13 44 -9 90 l8 85 -39 -48 c-27 -33 -39 -39 -39 -18 0 17 24
46 54 66 118 80 113 149 -6 75z"/>
<path d="M3724 2065 c5 -8 24 -49 42 -90 36 -77 74 -100 74 -43 0 40 -75 148
-103 148 -11 0 -17 -7 -13 -15z"/>
<path d="M1036 2010 c-41 -27 -83 -50 -95 -50 -12 0 -21 -13 -21 -30 0 -55 71
-31 150 50 89 91 74 104 -34 30z"/>
<path d="M1199 2018 c-20 -36 -17 -40 23 -35 54 8 72 47 29 64 -18 7 -39 -4
-52 -29z"/>
<path d="M3583 1981 c4 -27 18 -52 32 -56 36 -12 31 45 -7 77 -28 23 -31 20
-25 -21z"/>
<path d="M40 1969 c0 -41 38 -52 110 -31 l60 17 -54 14 c-29 8 -65 8 -78 0
-15 -10 -19 -7 -10 8 8 13 5 23 -7 23 -11 0 -21 -14 -21 -31z"/>
<path d="M4661 1954 c-1 -9 22 -49 49 -90 31 -45 50 -60 50 -40 0 33 -98 161
-99 130z"/>
<path d="M2690 1873 c-43 -25 -88 -75 -89 -98 -2 -29 35 -14 99 42 67 59 61
96 -10 56z"/>
<path d="M2790 1852 c-33 -27 -55 -53 -49 -59 15 -16 139 62 139 87 0 32 -25
24 -90 -28z"/>
<path d="M4460 1892 c0 -4 32 -39 70 -78 39 -38 70 -88 70 -111 0 -46 31 -74
50 -43 17 27 -127 240 -162 240 -15 0 -28 -4 -28 -8z"/>
<path d="M2201 1841 c-49 -49 -54 -90 -9 -73 17 7 35 12 39 12 4 0 17 17 28
39 31 56 -9 71 -58 22z"/>
<path d="M2360 1850 c-14 -17 -20 -36 -14 -43 21 -20 74 10 74 42 0 40 -28 40
-60 1z"/>
<path d="M3680 1871 c0 -45 45 -114 63 -96 14 14 14 33 -2 63 -19 36 -61 59
-61 33z"/>
<path d="M4108 1745 c7 -30 16 -68 19 -84 9 -41 53 -51 53 -12 0 37 -55 151
-73 151 -6 0 -6 -25 1 -55z"/>
<path d="M1120 1748 c0 -20 -20 -56 -43 -82 -52 -55 -25 -60 62 -11 42 24 60
48 56 75 -7 51 -75 67 -75 18z"/>
<path d="M1662 1727 c-32 -72 -13 -82 47 -25 60 57 64 78 14 78 -20 0 -47 -24
-61 -53z"/>
<path d="M3871 1762 c-6 -11 -3 -25 9 -32 11 -7 20 -43 20 -80 0 -64 29 -108
54 -83 14 15 -34 190 -55 204 -9 5 -22 1 -28 -9z"/>
<path d="M4460 1754 c0 -3 23 -37 50 -74 30 -41 46 -83 39 -104 -8 -24 -1 -36
20 -36 46 0 38 61 -20 145 -41 61 -89 98 -89 69z"/>
<path d="M804 1675 c4 -28 22 -47 50 -51 40 -6 41 -2 20 45 -30 64 -79 68 -70
6z"/>
<path d="M1905 1706 c-49 -10 -60 -36 -20 -51 34 -13 115 19 115 44 0 21 -15
22 -95 7z"/>
<path d="M4986 1556 c23 -45 45 -73 49 -61 9 28 -50 145 -73 145 -9 0 2 -38
24 -84z"/>
<path d="M1758 1615 c-31 -86 0 -185 44 -141 22 22 1 146 -24 146 -10 0 -19
-2 -20 -5z"/>
<path d="M3830 1557 c-16 -41 24 -123 51 -106 27 16 23 55 -10 100 -25 35 -29
36 -41 6z"/>
<path d="M4072 1455 c8 -25 15 -67 16 -93 2 -58 52 -83 52 -27 0 58 -41 165
-63 165 -11 0 -14 -19 -5 -45z"/>
<path d="M4251 1465 c8 -19 17 -57 19 -84 4 -59 50 -81 50 -24 0 53 -41 143
-65 143 -11 0 -13 -16 -4 -35z"/>
<path d="M4704 1485 c48 -98 65 -125 81 -125 11 0 13 16 5 35 -8 19 -19 51
-25 70 -5 19 -23 35 -39 35 -16 0 -26 -7 -22 -15z"/>
<path d="M3587 1430 c5 -33 10 -80 11 -105 1 -25 12 -45 25 -45 28 0 10 155
-23 187 -17 17 -20 8 -13 -37z"/>
<path d="M4480 1441 c0 -10 19 -50 41 -89 23 -38 39 -85 35 -104 -3 -18 5 -38
19 -43 39 -13 30 64 -19 164 -41 84 -76 117 -76 72z"/>
<path d="M3708 1380 c7 -27 12 -70 12 -95 0 -25 9 -45 20 -45 30 0 23 83 -12
140 l-31 50 11 -50z"/>
<path d="M3820 1383 c0 -11 9 -26 20 -33 11 -7 20 -43 20 -80 0 -69 28 -110
45 -65 14 37 -32 181 -60 190 -14 5 -25 -1 -25 -12z"/>
<path d="M4989 1345 c8 -30 36 -78 62 -106 27 -28 49 -60 49 -70 1 -10 23 -40
50 -66 28 -26 50 -60 50 -75 0 -44 -19 -33 -40 22 -10 28 -29 50 -40 50 -14 0
-13 -16 4 -45 14 -25 35 -83 47 -130 35 -129 -17 -73 -121 134 -95 189 -157
264 -177 212 -14 -37 68 -172 99 -162 23 8 88 -109 88 -160 0 -16 8 -29 19
-29 10 0 35 -27 54 -60 20 -33 46 -60 59 -60 13 0 29 -22 36 -50 7 -28 22 -50
33 -50 18 0 150 -259 186 -365 18 -53 58 -43 42 10 -27 88 -152 325 -185 351
-26 20 -35 62 -38 180 -6 276 -48 402 -134 404 -11 0 1 -21 25 -46 23 -26 43
-67 43 -93 0 -47 -89 68 -159 204 -15 30 -36 55 -47 55 -10 0 -12 -24 -5 -55z"/>
<path d="M3470 1297 c-19 -50 70 -204 101 -173 4 4 -14 52 -40 107 -36 73 -52
90 -61 66z"/>
<path d="M3372 1140 c16 -89 65 -184 87 -171 21 13 -18 128 -65 192 l-35 49
13 -70z"/>
<path d="M4201 1165 c0 -19 13 -62 28 -95 32 -68 44 -10 18 85 -14 53 -47 60
-46 10z"/>
<path d="M4100 1162 c0 -9 13 -43 29 -74 22 -42 24 -60 7 -71 -17 -10 -17 -22
3 -45 68 -83 83 7 21 129 -40 77 -60 98 -60 61z"/>
<path d="M4351 1078 c19 -36 27 -83 20 -111 -11 -43 32 -90 59 -64 12 12 -33
183 -55 212 -39 49 -55 24 -24 -37z"/>
<path d="M4856 1056 c13 -13 24 -39 24 -58 0 -28 84 -233 138 -337 55 -107 49
-15 -8 110 -38 85 -70 166 -70 181 0 50 -47 128 -77 128 -24 0 -26 -5 -7 -24z"/>
<path d="M3850 945 c9 -19 20 -57 26 -85 5 -27 23 -70 39 -94 32 -49 15 -235
-19 -213 -11 6 -17 -5 -13 -26 23 -118 67 -30 64 130 -1 101 5 157 15 140 13
-21 18 -17 19 13 1 24 25 -9 59 -80 71 -150 79 -97 9 61 -39 88 -56 110 -70
88 -16 -25 -18 -24 -19 3 0 37 -62 98 -99 98 -16 0 -20 -12 -11 -35z"/>
<path d="M4560 951 c0 -27 89 -154 95 -136 10 29 -51 145 -76 145 -10 0 -19
-4 -19 -9z"/>
<path d="M4680 950 c0 -35 126 -276 134 -256 11 30 -93 266 -117 266 -9 0 -17
-5 -17 -10z"/>
<path d="M3148 889 c-15 -61 23 -116 50 -72 19 30 7 98 -20 114 -9 6 -23 -13
-30 -42z"/>
<path d="M3361 895 c-1 -36 9 -55 29 -55 38 0 38 22 1 71 -28 37 -30 37 -30
-16z"/>
<path d="M3793 876 c-17 -65 -16 -96 5 -96 26 0 47 103 26 124 -11 11 -23 1
-31 -28z"/>
<path d="M3650 854 c-44 -11 -102 -35 -130 -53 -191 -128 -539 -203 -596 -128
-19 25 -26 27 -20 7 15 -48 -46 -79 -158 -79 -84 -1 -109 -9 -126 -41 -17 -32
-30 -36 -60 -20 -50 27 -60 25 -60 -10 0 -16 8 -30 18 -30 10 0 16 -16 15 -35
-2 -22 8 -32 27 -27 66 19 147 11 156 -16 5 -16 0 -22 -12 -14 -22 13 -18 -49
5 -86 11 -18 -45 -51 -74 -45 -8 2 -15 -6 -15 -17 0 -11 11 -20 25 -20 17 -1
15 -7 -5 -20 -24 -16 -20 -19 18 -15 50 5 112 -125 67 -140 -100 -33 -89 -64
22 -64 l117 -1 -42 71 c-50 85 -52 131 -11 212 31 59 31 60 -15 56 -76 -6 -80
-1 -44 58 41 70 126 123 197 123 29 0 81 12 117 27 152 63 174 61 174 -17 0
-48 9 -70 30 -70 23 0 25 11 10 51 -31 80 -24 104 30 114 33 6 50 0 50 -17 0
-14 10 -32 22 -39 13 -8 19 4 15 34 -6 38 9 55 73 88 45 22 103 56 130 75 60
42 88 44 73 4 -18 -47 18 -35 44 15 22 42 23 41 17 -20 -4 -36 0 -65 9 -65 21
0 23 155 2 166 -8 4 -51 -1 -95 -12z"/>
<path d="M5480 853 c0 -33 185 -393 202 -393 28 0 24 9 -73 196 -87 165 -129
230 -129 197z"/>
<path d="M2932 823 c-21 -34 4 -96 38 -96 37 0 38 34 3 82 -19 26 -31 30 -41
14z"/>
<path d="M4060 820 c0 -29 102 -205 113 -194 11 11 -71 190 -94 204 -10 7 -19
2 -19 -10z"/>
<path d="M4140 803 c0 -23 100 -203 113 -203 14 0 -11 81 -49 155 -31 62 -64
86 -64 48z"/>
<path d="M4251 802 c-6 -9 3 -29 20 -43 17 -14 25 -40 18 -62 -8 -25 -2 -37
20 -37 17 0 31 -10 31 -21 0 -12 -11 -15 -23 -7 -17 10 -19 3 -8 -24 8 -21 20
-54 26 -73 5 -19 18 -35 27 -35 25 0 22 35 -3 51 -12 7 -16 37 -9 69 7 32 3
62 -9 69 -11 7 -21 24 -21 36 0 86 85 -76 152 -290 16 -52 38 -95 47 -95 18 0
5 60 -37 166 -27 70 -28 100 -2 84 28 -17 26 -10 -20 80 -22 42 -54 80 -72 82
-17 3 -47 19 -66 36 -40 36 -55 39 -71 14z"/>
<path d="M4531 745 c16 -30 29 -66 29 -80 0 -37 72 -147 87 -132 7 8 31 -3 53
-23 71 -64 43 -1 -30 67 -39 37 -76 90 -83 120 -14 59 -43 103 -68 103 -9 0
-4 -25 12 -55z"/>
<path d="M4461 760 c0 -32 45 -100 66 -100 23 0 13 29 -27 80 -26 33 -39 40
-39 20z"/>
<path d="M5380 762 c0 -10 8 -22 17 -25 10 -4 56 -79 104 -167 100 -187 96
-180 111 -165 12 13 -91 223 -157 320 -37 54 -75 73 -75 37z"/>
<path d="M5170 696 c8 -30 4 -84 -8 -121 -24 -72 8 -223 38 -176 15 25 70 -92
129 -274 19 -58 42 -101 51 -95 9 6 9 37 -1 70 -11 33 -27 85 -36 115 -10 30
-44 108 -75 173 -38 77 -50 121 -35 126 15 5 17 30 7 76 -8 37 -12 72 -8 76 5
4 -10 25 -33 45 -42 38 -42 37 -29 -15z"/>
<path d="M238 645 c0 -8 -4 -30 -7 -48 -12 -61 96 -121 136 -75 41 48 81 50
69 3 -8 -29 5 -35 82 -37 51 -1 81 2 67 6 -14 5 -21 17 -15 26 5 9 -7 12 -28
6 -20 -5 -44 2 -53 15 -9 16 -7 20 7 12 19 -12 64 41 64 75 0 5 -58 5 -130 -1
-87 -7 -130 -3 -130 11 0 24 -59 31 -62 7z"/>
<path d="M4765 635 c38 -100 40 -126 8 -85 -18 22 -32 52 -32 66 -1 15 -10 21
-22 13 -24 -15 50 -142 80 -134 10 2 24 -14 31 -35 7 -22 21 -40 31 -40 27 0
23 33 -8 64 -15 15 -33 61 -41 102 -8 40 -23 74 -35 74 -12 0 -17 -11 -12 -25z"/>
<path d="M753 605 c-28 -46 11 -95 79 -100 62 -5 67 -1 49 32 -11 21 -14 43
-7 50 7 7 -2 13 -19 13 -17 0 -45 5 -61 11 -17 7 -35 4 -41 -6z"/>
<path d="M3701 610 c-1 -36 79 -152 98 -141 20 13 15 73 -6 71 -8 -1 -32 19
-53 44 -21 25 -39 37 -39 26z"/>
<path d="M644 568 c-32 -35 -30 -48 7 -48 20 0 26 -9 16 -25 -10 -17 -4 -16
19 2 40 33 45 96 8 96 -14 0 -37 -11 -50 -25z"/>
<path d="M3495 528 c-6 -6 -2 -38 9 -71 13 -36 28 -53 39 -42 11 11 10 40 -2
72 -21 55 -27 61 -46 41z"/>
<path d="M4080 516 c0 -14 13 -84 30 -156 16 -71 34 -155 40 -185 18 -95 44
-60 29 40 -31 210 -98 416 -99 301z"/>
<path d="M4199 351 c54 -192 81 -252 81 -175 0 60 -98 364 -118 364 -9 0 8
-85 37 -189z"/>
<path d="M4580 504 c0 -39 58 -144 81 -144 22 0 24 30 6 95 -6 24 -21 39 -32
32 -10 -7 -27 0 -37 15 -13 22 -17 22 -18 2z"/>
<path d="M1145 445 c2 -47 12 -63 31 -55 15 5 35 10 45 10 10 0 12 14 6 31 -7
17 -17 26 -22 20 -6 -6 -23 5 -38 24 -24 31 -26 28 -22 -30z"/>
<path d="M3629 448 c22 -90 55 -110 47 -30 -3 38 -19 73 -34 78 -21 7 -24 -4
-13 -48z"/>
<path d="M3108 429 c-11 -46 1 -89 19 -67 20 23 31 118 14 118 -11 0 -26 -23
-33 -51z"/>
<path d="M5045 465 c4 -8 20 -41 36 -73 23 -46 23 -60 4 -67 -30 -10 -34 -85
-5 -85 11 0 20 18 20 40 0 22 9 40 20 40 29 0 23 84 -8 125 -26 34 -82 50 -67
20z"/>
<path d="M3055 434 c-8 -20 -24 -31 -36 -23 -14 8 -19 -22 -15 -93 4 -63 16
-108 32 -113 19 -7 22 6 13 48 -9 42 -7 49 8 28 33 -48 42 -17 26 90 -10 70
-18 88 -28 63z"/>
<path d="M4400 455 c0 -5 18 -61 40 -125 46 -132 51 -179 17 -158 -17 10 -20
-4 -10 -51 7 -36 13 -78 13 -94 0 -15 8 -27 19 -27 10 0 13 31 7 70 -7 45 -3
70 11 70 32 0 28 52 -15 189 -29 94 -82 175 -82 126z"/>
<path d="M4791 425 c8 -19 42 -111 74 -205 33 -94 72 -183 86 -198 26 -28 -63
279 -112 383 -27 59 -73 78 -48 20z"/>
<path d="M5820 451 c0 -7 23 -58 51 -114 29 -55 48 -105 43 -109 -4 -5 -24 28
-44 72 -35 79 -90 143 -90 106 0 -16 95 -226 109 -241 14 -16 71 23 71 48 0
36 -93 220 -120 237 -11 7 -20 7 -20 1z"/>
<path d="M1668 385 c-24 -38 -16 -85 15 -85 11 0 14 8 8 19 -6 10 7 24 30 31
23 7 38 24 33 37 -12 37 -62 37 -86 -2z"/>
<path d="M3989 350 c22 -132 51 -228 72 -240 25 -16 23 16 -11 158 -33 142
-83 207 -61 82z"/>
<path d="M4759 225 c20 -52 48 -124 61 -160 14 -36 33 -65 42 -65 9 0 7 25 -4
55 -12 30 -39 102 -61 160 -22 58 -48 105 -57 105 -10 0 -1 -43 19 -95z"/>
<path d="M5644 308 c4 -10 38 -83 75 -163 55 -120 101 -181 101 -136 0 12 -76
183 -111 250 -23 45 -86 91 -65 49z"/>
<path d="M3277 271 c-15 -16 28 -211 47 -211 9 0 16 11 16 25 -1 45 -52 197
-63 186z"/>
<path d="M3533 215 c30 -142 54 -213 70 -203 10 6 14 26 9 45 -5 18 -20 71
-32 118 -22 87 -64 122 -47 40z"/>
<path d="M5503 225 c45 -100 122 -225 138 -225 11 0 -8 54 -41 120 -46 91
-133 185 -97 105z"/>
<path d="M4588 188 c7 -17 18 -67 25 -110 6 -43 21 -78 31 -78 10 0 14 25 9
55 -17 107 -38 165 -57 165 -11 0 -15 -14 -8 -32z"/>
<path d="M5100 201 c0 -44 49 -201 63 -201 24 0 39 36 20 48 -10 7 -24 43 -32
81 -12 64 -51 120 -51 72z"/>
<path d="M5652 165 c18 -72 68 -171 81 -159 14 14 -59 214 -78 214 -9 0 -10
-25 -3 -55z"/>
<path d="M3166 98 c10 -77 26 -115 41 -96 15 19 -13 178 -32 178 -12 0 -16
-32 -9 -82z"/>
<path d="M3421 110 c0 -65 29 -127 50 -105 8 7 0 47 -17 89 l-32 76 -1 -60z"/>
</g>
</svg>
